<svg width="14" height="16" viewBox="0 0 14 16" fill="none" xmlns="http://www.w3.org/2000/svg">
<path d="M0.333252 9.66667C0.333252 8.20833 0.680474 6.90972 1.37492 5.77083C2.06936 4.63194 2.83325 3.67361 3.66659 2.89583C4.49992 2.11806 5.26381 1.52417 5.95825 1.11417L6.99992 0.5V3.25C6.99992 3.76389 7.17353 4.17 7.52075 4.46833C7.86798 4.76667 8.25686 4.91611 8.68742 4.91667C8.92353 4.91667 9.14936 4.86806 9.36492 4.77083C9.58048 4.67361 9.77825 4.51389 9.95825 4.29167L10.3333 3.83333C11.3333 4.41667 12.1388 5.22555 12.7499 6.26C13.361 7.29444 13.6666 8.43 13.6666 9.66667C13.6666 10.8889 13.368 12.0036 12.7708 13.0108C12.1735 14.0181 11.3888 14.8128 10.4166 15.395C10.6527 15.0617 10.8369 14.6969 10.9691 14.3008C11.1013 13.9047 11.1671 13.485 11.1666 13.0417C11.1666 12.4861 11.0624 11.9617 10.8541 11.4683C10.6458 10.975 10.3471 10.5342 9.95825 10.1458L6.99992 7.25L4.06242 10.1458C3.65964 10.5486 3.35409 10.9931 3.14575 11.4792C2.93742 11.9653 2.83325 12.4861 2.83325 13.0417C2.83325 13.4861 2.89936 13.9064 3.03159 14.3025C3.16381 14.6986 3.3477 15.0631 3.58325 15.3958C2.61103 14.8125 1.82631 14.0172 1.22909 13.01C0.631863 12.0028 0.333252 10.8883 0.333252 9.66667ZM6.99992 9.58333L8.77075 11.3125C9.00686 11.5486 9.18742 11.8125 9.31242 12.1042C9.43742 12.3958 9.49992 12.7083 9.49992 13.0417C9.49992 13.7222 9.25686 14.3019 8.77075 14.7808C8.28464 15.2597 7.69436 15.4994 6.99992 15.5C6.30547 15.5 5.7152 15.2603 5.22909 14.7808C4.74297 14.3014 4.49992 13.7217 4.49992 13.0417C4.49992 12.7222 4.56242 12.4131 4.68742 12.1142C4.81242 11.8153 4.99297 11.5481 5.22909 11.3125L6.99992 9.58333Z" fill="#FF8743"/>
</svg>
